# Blender 4.1.1
# www.blender.org
mtllib basketball.mtl
o basketball
v 0.136746 -0.000000 0.000000
v 0.000000 0.136746 -0.000000
v 0.037003 0.126337 0.037003
v 0.068373 0.096694 0.068373
v 0.089333 0.052330 0.089333
v 0.096694 -0.000000 0.096694
v 0.089333 -0.052330 0.089333
v 0.068373 -0.096694 0.068373
v 0.037003 -0.126337 0.037003
v 0.000000 0.126337 0.052330
v 0.000000 0.096694 0.096694
v 0.000000 0.052330 0.126337
v 0.000000 -0.000000 0.136746
v 0.000000 -0.052330 0.126337
v 0.000000 -0.096694 0.096694
v 0.000000 -0.126337 0.052330
v 0.000000 -0.136746 0.000000
v -0.037003 0.126337 0.037003
v -0.068373 0.096694 0.068373
v -0.089333 0.052330 0.089333
v -0.096694 -0.000000 0.096694
v -0.089333 -0.052330 0.089333
v -0.068373 -0.096694 0.068373
v -0.037003 -0.126337 0.037003
v -0.052330 0.126337 -0.000000
v -0.096694 0.096694 -0.000000
v -0.126337 0.052330 0.000000
v -0.136746 -0.000000 -0.000000
v -0.126337 -0.052330 0.000000
v -0.096694 -0.096694 -0.000000
v -0.052330 -0.126337 -0.000000
v -0.037003 0.126337 -0.037003
v -0.068373 0.096694 -0.068373
v -0.089333 0.052330 -0.089333
v -0.096694 -0.000000 -0.096694
v -0.089333 -0.052330 -0.089333
v -0.068373 -0.096694 -0.068373
v -0.037003 -0.126337 -0.037003
v 0.000000 0.126337 -0.052330
v 0.000000 0.096694 -0.096694
v 0.000000 0.052330 -0.126337
v 0.000000 -0.000000 -0.136746
v 0.000000 -0.052330 -0.126337
v 0.000000 -0.096694 -0.096694
v 0.000000 -0.126337 -0.052330
v 0.037003 0.126337 -0.037003
v 0.068373 0.096694 -0.068373
v 0.089333 0.052330 -0.089333
v 0.096694 -0.000000 -0.096694
v 0.089333 -0.052330 -0.089333
v 0.068373 -0.096694 -0.068373
v 0.037003 -0.126337 -0.037003
v 0.052330 0.126337 0.000000
v 0.096694 0.096694 0.000000
v 0.126337 0.052330 -0.000000
v 0.126337 -0.052330 -0.000000
v 0.096694 -0.096694 0.000000
v 0.052330 -0.126337 0.000000
vn 1.0000 -0.0000 -0.0000
vn -0.0000 1.0000 -0.0000
vn 0.2988 0.9063 0.2988
vn 0.5159 0.6839 0.5159
vn 0.6578 0.3668 0.6578
vn 0.7071 -0.0000 0.7071
vn 0.6578 -0.3668 0.6578
vn 0.5159 -0.6839 0.5159
vn 0.2988 -0.9063 0.2988
vn -0.0000 0.9063 0.4226
vn -0.0000 0.6839 0.7296
vn -0.0000 0.3668 0.9303
vn -0.0000 -0.0000 1.0000
vn -0.0000 -0.3668 0.9303
vn -0.0000 -0.6839 0.7296
vn -0.0000 -0.9063 0.4226
vn -0.0000 -1.0000 -0.0000
vn -0.2988 0.9063 0.2988
vn -0.5159 0.6839 0.5159
vn -0.6578 0.3668 0.6578
vn -0.7071 -0.0000 0.7071
vn -0.6578 -0.3668 0.6578
vn -0.5159 -0.6839 0.5159
vn -0.2988 -0.9063 0.2988
vn -0.4226 0.9063 -0.0000
vn -0.7296 0.6839 -0.0000
vn -0.9303 0.3668 -0.0000
vn -1.0000 -0.0000 -0.0000
vn -0.9303 -0.3668 -0.0000
vn -0.7296 -0.6839 -0.0000
vn -0.4226 -0.9063 -0.0000
vn -0.2988 0.9063 -0.2988
vn -0.5159 0.6839 -0.5159
vn -0.6578 0.3668 -0.6578
vn -0.7071 -0.0000 -0.7071
vn -0.6578 -0.3668 -0.6578
vn -0.5159 -0.6839 -0.5159
vn -0.2988 -0.9063 -0.2988
vn -0.0000 0.9063 -0.4226
vn -0.0000 0.6839 -0.7296
vn -0.0000 0.3668 -0.9303
vn -0.0000 -0.0000 -1.0000
vn -0.0000 -0.3668 -0.9303
vn -0.0000 -0.6839 -0.7296
vn -0.0000 -0.9063 -0.4226
vn 0.2988 0.9063 -0.2988
vn 0.5159 0.6839 -0.5159
vn 0.6578 0.3668 -0.6578
vn 0.7071 -0.0000 -0.7071
vn 0.6578 -0.3668 -0.6578
vn 0.5159 -0.6839 -0.5159
vn 0.2988 -0.9063 -0.2988
vn 0.4226 0.9063 -0.0000
vn 0.7296 0.6839 -0.0000
vn 0.9303 0.3668 -0.0000
vn 0.9303 -0.3668 -0.0000
vn 0.7296 -0.6839 -0.0000
vn 0.4226 -0.9063 -0.0000
vt 0.499434 0.512351
vt 0.795427 0.685740
vt 0.819815 0.512351
vt 0.499434 0.930949
vt 0.725977 0.832732
vt 0.499434 0.832732
vt 0.499434 0.093753
vt 0.725977 0.191970
vt 0.622038 0.093753
vt 0.795427 0.338962
vt 0.499434 0.338962
vt 0.499434 0.685740
vt 0.499434 0.965439
vt 0.622038 0.930949
vt 0.499434 0.059264
vt 0.499434 0.191970
vt 0.819815 0.191970
vt 0.672822 0.093753
vt 0.918031 0.338962
vt 0.918031 0.685740
vt 0.672822 0.930949
vt 0.952520 0.512351
vt 0.819815 0.832732
vt 0.622038 0.093753
vt 0.819815 0.512351
vt 0.725977 0.832732
vt 0.795427 0.685740
vt 0.499434 0.191970
vt 0.499434 0.512351
vt 0.499434 0.832732
vt 0.499434 0.093753
vt 0.499434 0.685740
vt 0.376829 0.093753
vt 0.203440 0.338962
vt 0.203440 0.685740
vt 0.376829 0.930949
vt 0.272890 0.191970
vt 0.179053 0.512351
vt 0.272890 0.832732
vt 0.080836 0.338962
vt 0.080836 0.685740
vt 0.326044 0.930949
vt 0.326044 0.093753
vt 0.179053 0.191970
vt 0.046346 0.512351
vt 0.179053 0.832732
vt 0.376829 0.093753
vt 0.203440 0.685740
vt 0.179053 0.512351
vt 0.272890 0.832732
s 1
usemtl basketball
f 1/1/1 5/2/5 6/3/6
f 53/4/53 4/5/4 54/6/54
f 58/7/58 8/8/8 9/9/9
f 1/1/1 7/10/7 56/11/56
f 54/6/54 5/2/5 55/12/55
f 53/4/53 2/13/2 3/14/3
f 17/15/17 58/7/58 9/9/9
f 56/11/56 8/8/8 57/16/57
f 9/9/9 15/17/15 16/18/16
f 6/3/6 14/19/14 7/10/7
f 4/5/4 12/20/12 5/2/5
f 3/14/3 2/13/2 10/21/10
f 17/15/17 9/9/9 16/18/16
f 7/10/7 15/17/15 8/8/8
f 5/2/5 13/22/13 6/3/6
f 3/14/3 11/23/11 4/5/4
f 10/21/10 2/13/2 18/14/18
f 17/15/17 16/18/16 24/24/24
f 14/19/14 23/8/23 15/17/15
f 12/20/12 21/25/21 13/22/13
f 10/21/10 19/26/19 11/23/11
f 15/17/15 24/24/24 16/18/16
f 13/22/13 22/10/22 14/19/14
f 11/23/11 20/27/20 12/20/12
f 22/10/22 30/28/30 23/8/23
f 20/27/20 28/29/28 21/25/21
f 18/14/18 26/30/26 19/26/19
f 23/8/23 31/31/31 24/24/24
f 21/25/21 29/11/29 22/10/22
f 19/26/19 27/32/27 20/27/20
f 18/14/18 2/13/2 25/4/25
f 17/15/17 24/24/24 31/31/31
f 30/28/30 38/33/38 31/31/31
f 28/29/28 36/34/36 29/11/29
f 26/30/26 34/35/34 27/32/27
f 25/4/25 2/13/2 32/36/32
f 17/15/17 31/31/31 38/33/38
f 29/11/29 37/37/37 30/28/30
f 27/32/27 35/38/35 28/29/28
f 25/4/25 33/39/33 26/30/26
f 35/38/35 43/40/43 36/34/36
f 33/39/33 41/41/41 34/35/34
f 32/36/32 2/13/2 39/42/39
f 17/15/17 38/33/38 45/43/45
f 36/34/36 44/44/44 37/37/37
f 35/38/35 41/41/41 42/45/42
f 32/36/32 40/46/40 33/39/33
f 37/37/37 45/43/45 38/33/38
f 17/15/17 45/43/45 52/47/52
f 44/44/44 50/34/50 51/37/51
f 42/45/42 48/48/48 49/49/49
f 40/46/40 46/36/46 47/50/47
f 45/43/45 51/37/51 52/47/52
f 42/45/42 50/34/50 43/40/43
f 40/46/40 48/48/48 41/41/41
f 39/42/39 2/13/2 46/36/46
f 49/49/49 55/12/55 1/1/1
f 46/36/46 54/6/54 47/50/47
f 52/47/52 57/16/57 58/7/58
f 49/49/49 56/11/56 50/34/50
f 47/50/47 55/12/55 48/48/48
f 46/36/46 2/13/2 53/4/53
f 17/15/17 52/47/52 58/7/58
f 50/34/50 57/16/57 51/37/51
f 1/1/1 55/12/55 5/2/5
f 53/4/53 3/14/3 4/5/4
f 58/7/58 57/16/57 8/8/8
f 1/1/1 6/3/6 7/10/7
f 54/6/54 4/5/4 5/2/5
f 56/11/56 7/10/7 8/8/8
f 9/9/9 8/8/8 15/17/15
f 6/3/6 13/22/13 14/19/14
f 4/5/4 11/23/11 12/20/12
f 7/10/7 14/19/14 15/17/15
f 5/2/5 12/20/12 13/22/13
f 3/14/3 10/21/10 11/23/11
f 14/19/14 22/10/22 23/8/23
f 12/20/12 20/27/20 21/25/21
f 10/21/10 18/14/18 19/26/19
f 15/17/15 23/8/23 24/24/24
f 13/22/13 21/25/21 22/10/22
f 11/23/11 19/26/19 20/27/20
f 22/10/22 29/11/29 30/28/30
f 20/27/20 27/32/27 28/29/28
f 18/14/18 25/4/25 26/30/26
f 23/8/23 30/28/30 31/31/31
f 21/25/21 28/29/28 29/11/29
f 19/26/19 26/30/26 27/32/27
f 30/28/30 37/37/37 38/33/38
f 28/29/28 35/38/35 36/34/36
f 26/30/26 33/39/33 34/35/34
f 29/11/29 36/34/36 37/37/37
f 27/32/27 34/35/34 35/38/35
f 25/4/25 32/36/32 33/39/33
f 35/38/35 42/45/42 43/40/43
f 33/39/33 40/46/40 41/41/41
f 36/34/36 43/40/43 44/44/44
f 35/38/35 34/35/34 41/41/41
f 32/36/32 39/42/39 40/46/40
f 37/37/37 44/44/44 45/43/45
f 44/44/44 43/40/43 50/34/50
f 42/45/42 41/41/41 48/48/48
f 40/46/40 39/42/39 46/36/46
f 45/43/45 44/44/44 51/37/51
f 42/45/42 49/49/49 50/34/50
f 40/46/40 47/50/47 48/48/48
f 49/49/49 48/48/48 55/12/55
f 46/36/46 53/4/53 54/6/54
f 52/47/52 51/37/51 57/16/57
f 49/49/49 1/1/1 56/11/56
f 47/50/47 54/6/54 55/12/55
f 50/34/50 56/11/56 57/16/57
