# Blender 4.1.1
# www.blender.org
o Cone.001
v -0.217057 -0.028737 0.214545
v -0.140516 1.322212 0.135302
v -0.236804 -0.028737 -0.203254
v -0.153150 1.322212 -0.132007
v 0.181288 -0.028737 0.203966
v 0.114348 1.322212 0.128534
v 0.245343 -0.028737 -0.203254
v 0.155331 1.322212 -0.132007
v 0.001090 1.322212 -0.208896
v 0.004270 -0.028737 -0.323429
v 0.001090 1.322212 0.158952
v 0.004270 -0.028737 0.251508
v -0.183496 1.322212 0.022233
v -0.284235 -0.028737 0.037820
v 0.163198 1.322212 -0.004985
v 0.257639 -0.028737 -0.004721
v 0.001090 1.322212 -0.016211
v 0.004270 -0.028737 -0.022267
v 0.715607 0.528365 -0.935582
v 1.087525 0.623558 -0.452434
v 1.168042 0.623558 0.151943
v 0.935582 0.623558 0.715607
v 0.452434 0.528365 1.087525
v -0.151943 0.528365 1.168042
v -0.715607 0.623558 0.935583
v 0.000000 2.317974 0.000000
v -1.087525 0.528365 0.452435
v -1.168042 0.528365 -0.151943
v -0.935583 0.528365 -0.715607
v -0.452435 0.623558 -1.087525
v 0.151942 0.528365 -1.168042
v 0.453041 1.965417 -0.816914
v 0.800802 2.036800 -0.480948
v 0.933989 2.036800 -0.016112
v 0.816914 2.036800 0.453041
v 0.480948 1.965417 0.800802
v 0.016112 1.965417 0.933989
v -0.453041 2.036800 0.816914
v 0.000000 3.307402 0.000000
v -0.800802 1.965417 0.480948
v -0.933989 1.965417 0.016113
v -0.816914 1.965417 -0.453040
v -0.480948 2.036800 -0.800801
v -0.016113 1.965417 -0.933989
v -0.000000 1.314282 -1.080517
v 0.540259 1.401606 -0.935755
v 0.935755 1.401606 -0.540259
v 1.080517 1.401606 0.000000
v 0.935755 1.314282 0.540259
v 0.540259 1.314282 0.935755
v 0.000000 1.401606 1.080517
v 0.000000 2.955959 0.000000
v -0.540258 1.314282 0.935756
v -0.935755 1.314282 0.540259
v -1.080517 1.314282 0.000001
v -0.935756 1.401606 -0.540258
v -0.540259 1.314282 -0.935755
vn -0.9787 0.0708 -0.1926
vn 0.4448 0.0767 -0.8923
vn 0.9371 0.0656 0.3429
vn -0.1644 0.0670 0.9841
vn -0.0000 -1.0000 -0.0000
vn -0.0000 1.0000 -0.0000
vn 0.2588 0.0666 0.9636
vn -0.4449 0.0746 -0.8925
vn 0.9957 0.0696 -0.0617
vn -0.9322 0.0736 0.3544
vn 0.6092 0.5448 -0.5763
vn 0.8229 0.5575 -0.1096
vn 0.7675 0.5575 0.3165
vn 0.4415 0.5448 0.7129
vn 0.1114 0.5365 0.8365
vn -0.2394 0.5448 0.8036
vn -0.7129 0.5448 0.4415
vn -0.8365 0.5365 0.1114
vn -0.7802 0.5365 -0.3217
vn -0.5763 0.5448 -0.6092
vn -0.0258 0.5448 -0.8381
vn 0.3217 0.5365 -0.7802
vn 0.5096 0.5663 -0.6478
vn 0.7838 0.5790 -0.2246
vn 0.7911 0.5790 0.1974
vn 0.5316 0.5663 0.6298
vn 0.2286 0.5580 0.7978
vn -0.1174 0.5663 0.8158
vn -0.6298 0.5663 0.5316
vn -0.7978 0.5580 0.2286
vn -0.8052 0.5580 -0.2009
vn -0.6478 0.5663 -0.5096
vn -0.1455 0.5663 -0.8112
vn 0.2009 0.5580 -0.8052
vn 0.1337 0.5448 -0.8278
vn 0.5870 0.5575 -0.5870
vn 0.8019 0.5575 -0.2149
vn 0.7838 0.5448 0.2981
vn 0.5967 0.5365 0.5967
vn 0.2981 0.5448 0.7838
vn -0.2981 0.5448 0.7838
vn -0.5967 0.5365 0.5967
vn -0.8151 0.5365 0.2184
vn -0.8278 0.5448 -0.1337
vn -0.5297 0.5448 -0.6500
vn -0.2184 0.5365 -0.8151
vt 0.874984 0.916145
vt 0.783394 0.058344
vt 0.810379 0.916145
vt 0.888220 0.916145
vt 0.791081 0.058344
vt 0.813867 0.916145
vt 0.832614 0.916145
vt 0.912948 0.058344
vt 0.893268 0.916145
vt 0.832477 0.916145
vt 0.911493 0.058344
vt 0.890908 0.916145
vt 0.149188 0.124523
vt 0.075349 0.199832
vt 0.056893 0.135174
vt 0.147301 0.335769
vt 0.245450 0.288866
vt 0.245450 0.376806
vt 0.074416 0.255552
vt 0.056198 0.324425
vt 0.248620 0.168557
vt 0.248620 0.085998
vt 0.927309 0.916145
vt 0.968388 0.058344
vt 0.936324 0.916145
vt 0.884370 0.058344
vt 0.211982 0.032090
vt 0.129831 0.034260
vt 0.068717 0.402989
vt 0.128194 0.431916
vt 0.209286 0.434227
vt 0.069577 0.061417
vt 0.939591 0.916145
vt 0.985349 0.058344
vt 0.757785 0.058344
vt 0.820168 0.058344
vt 0.651436 0.342347
vt 0.479357 0.409422
vt 0.600515 0.259134
vt 0.512776 0.214085
vt 0.414267 0.218941
vt 0.332841 0.273594
vt 0.288350 0.360246
vt 0.291191 0.458649
vt 0.345944 0.539392
vt 0.432596 0.583882
vt 0.529885 0.579086
vt 0.613782 0.528265
vt 0.656232 0.439636
vt 0.766157 0.740798
vt 0.582462 0.780854
vt 0.726602 0.649234
vt 0.644739 0.590673
vt 0.544562 0.580890
vt 0.453779 0.623522
vt 0.395762 0.704626
vt 0.384572 0.804546
vt 0.427300 0.894670
vt 0.508404 0.952687
vt 0.607651 0.962380
vt 0.699875 0.922921
vt 0.756465 0.840045
vt 0.378092 0.729196
vt 0.207934 0.676489
vt 0.388633 0.631646
vt 0.346100 0.542115
vt 0.264501 0.485846
vt 0.165810 0.479859
vt 0.077413 0.521853
vt 0.019900 0.602046
vt 0.014025 0.699972
vt 0.056019 0.788369
vt 0.136586 0.843927
vt 0.234902 0.854579
vt 0.322535 0.809763
vt 0.907292 0.058344
vt 0.818146 0.058344
vt 0.170481 0.223816
vt 0.168321 0.230004
vt 0.980244 0.058344
vt 0.792565 0.916145
s 0
f 4/1/1 14/2/1 13/3/1
f 8/4/2 10/5/2 9/6/2
f 6/7/3 16/8/3 15/9/3
f 2/10/4 12/11/4 11/12/4
f 18/13/5 7/14/5 16/15/5
f 17/16/6 4/17/6 13/18/6
f 8/19/6 17/16/6 15/20/6
f 3/21/5 18/13/5 14/22/5
f 6/23/7 12/11/7 5/24/7
f 9/25/8 3/26/8 4/1/8
f 1/27/5 18/13/5 12/28/5
f 6/29/6 17/16/6 11/30/6
f 17/16/6 2/31/6 11/30/6
f 18/13/5 5/32/5 12/28/5
f 8/33/9 16/8/9 7/34/9
f 2/10/10 14/35/10 1/36/10
f 19/37/11 26/38/11 20/39/11
f 20/39/12 26/38/12 21/40/12
f 21/40/13 26/38/13 22/41/13
f 22/41/14 26/38/14 23/42/14
f 23/42/15 26/38/15 24/43/15
f 24/43/16 26/38/16 25/44/16
f 25/44/17 26/38/17 27/45/17
f 27/45/18 26/38/18 28/46/18
f 28/46/19 26/38/19 29/47/19
f 29/47/20 26/38/20 30/48/20
f 30/48/21 26/38/21 31/49/21
f 31/49/22 26/38/22 19/37/22
f 32/50/23 39/51/23 33/52/23
f 33/52/24 39/51/24 34/53/24
f 34/53/25 39/51/25 35/54/25
f 35/54/26 39/51/26 36/55/26
f 36/55/27 39/51/27 37/56/27
f 37/56/28 39/51/28 38/57/28
f 38/57/29 39/51/29 40/58/29
f 40/58/30 39/51/30 41/59/30
f 41/59/31 39/51/31 42/60/31
f 42/60/32 39/51/32 43/61/32
f 43/61/33 39/51/33 44/62/33
f 44/62/34 39/51/34 32/50/34
f 45/63/35 52/64/35 46/65/35
f 46/65/36 52/64/36 47/66/36
f 47/66/37 52/64/37 48/67/37
f 48/67/38 52/64/38 49/68/38
f 49/68/39 52/64/39 50/69/39
f 50/69/40 52/64/40 51/70/40
f 51/70/41 52/64/41 53/71/41
f 53/71/42 52/64/42 54/72/42
f 54/72/43 52/64/43 55/73/43
f 55/73/44 52/64/44 56/74/44
f 56/74/45 52/64/45 57/75/45
f 57/75/46 52/64/46 45/63/46
f 4/1/1 3/26/1 14/2/1
f 8/4/2 7/76/2 10/5/2
f 6/7/3 5/77/3 16/8/3
f 2/10/4 1/36/4 12/11/4
f 18/13/5 10/78/5 7/14/5
f 17/16/6 9/79/6 4/17/6
f 8/19/6 9/79/6 17/16/6
f 3/21/5 10/78/5 18/13/5
f 6/23/7 11/12/7 12/11/7
f 9/25/8 10/80/8 3/26/8
f 1/27/5 14/22/5 18/13/5
f 6/29/6 15/20/6 17/16/6
f 17/16/6 13/18/6 2/31/6
f 18/13/5 16/15/5 5/32/5
f 8/33/9 15/9/9 16/8/9
f 2/10/10 13/81/10 14/35/10
